# xmcd
#
# Track frame offsets:
#	150
#	14557
#	25551
#	38319
#	55417
#	69497
#	84064
#	96397
#	110600
#	120277
#
# Disc length: 1791 seconds
#
# Revision: 1
# Processed by: cddbd v1.5.2PL0 Copyright (c) Steve Scherf et al.
# Submitted via: audiograbber 1.83.01
#
DISCID=6e06fd0a
DTITLE=René Turgeon - Je Te Promets L'amour
DYEAR=2005
DGENRE=Country
TTITLE0=Toujours Il Y Aura Une Chanson (Marthe St-Pierre - Jean Louis Houle)
TTITLE1=Elle Regarde Vers Le Ciel (René Turgeon)
TTITLE2=Chers Beaux Enfants (Gérard Cussons)
TTITLE3=Je Te Promets L'amour (René Turgeon)
TTITLE4=Le Dernier Train (Jean-Louis Houle)
TTITLE5=Ok D'accord (Jean-Louis Houle)
TTITLE6=Pourquoi Es-Tu Parti (René Turgeon)
TTITLE7=Prière D'un Enfant (Fred Bessette)
TTITLE8=J'ai Profité De La Vie (Marthe St-Pierre - Jean-Lousi Houle)
TTITLE9=Un Petit Coin De Paradis (Marthe St-Pierre - Jean-Louis Houle)
EXTD=
EXTT0=
EXTT1=
EXTT2=
EXTT3=
EXTT4=
EXTT5=
EXTT6=
EXTT7=
EXTT8=
EXTT9=
PLAYORDER=
